<svg width="27" height="20" viewBox="0 0 27 20" fill="none" xmlns="http://www.w3.org/2000/svg">
<path d="M20.0393 19.6835C19.9694 19.6835 19.9095 19.6835 19.8396 19.6835C19.3903 18.9547 18.951 18.2258 18.5017 17.487C19.2605 17.1175 19.9594 16.7781 20.6583 16.4386C20.3288 15.9693 20.0193 16.0292 19.6199 16.199C15.6262 17.8464 11.6125 17.8364 7.62876 16.179C7.20942 16.0093 6.92986 16.0193 6.64031 16.4486C7.3492 16.7881 8.0481 17.1275 8.79692 17.487C8.34763 18.2258 7.89834 18.9547 7.45903 19.6835C7.38914 19.6835 7.32923 19.6835 7.25934 19.6835C7.10957 19.6136 6.96979 19.5337 6.82003 19.4838C4.84313 18.8249 3.00602 17.8863 1.28872 16.6982C0.979202 16.4785 0.85939 16.2389 0.85939 15.8795C0.849406 15.3803 0.799484 14.891 0.769531 14.3918C0.769531 14.262 0.769531 14.1222 0.769531 13.9924C0.7895 13.7828 0.819453 13.5631 0.829437 13.3535C0.949249 9.54943 2.11741 6.0649 4.07434 2.81999C4.50367 2.11111 5.00288 1.61189 5.81161 1.39224C7.1595 1.02282 8.50738 0.613459 9.85526 0.214086C9.92515 0.214086 9.98506 0.214086 10.0549 0.214086C10.2247 0.573521 10.4144 0.922973 10.5542 1.28241C10.654 1.55198 10.8038 1.57195 11.0733 1.56197C12.4412 1.49208 13.8091 1.46213 15.1869 1.44216C15.6562 1.43217 16.2552 1.70175 16.5747 1.49208C16.9242 1.27242 17.034 0.653396 17.2437 0.204102C17.3136 0.204102 17.3735 0.204102 17.4433 0.204102C17.5033 0.234055 17.5532 0.273992 17.6231 0.283976C19.2106 0.563537 20.7482 1.0328 22.2159 1.70175C22.4056 1.78162 22.6052 1.91142 22.7151 2.08115C24.4124 4.61717 25.6405 7.35287 26.1397 10.3881C26.3394 11.6162 26.4093 12.8542 26.5391 14.0923C26.5391 14.1921 26.5391 14.292 26.5391 14.3918C26.5091 14.8711 26.4492 15.3503 26.4492 15.8296C26.4492 16.2289 26.3394 16.5185 25.97 16.7282C25.0214 17.2673 24.1129 17.8863 23.1344 18.3756C22.136 18.8748 21.0776 19.2542 20.0393 19.6835ZM20.239 10.9173C20.2489 9.67922 19.4702 8.63087 18.3919 8.39124C17.1937 8.13165 16.0356 8.90044 15.6961 10.1884C15.3367 11.5463 16.0655 13.014 17.2936 13.3834C18.7713 13.8427 20.229 12.6246 20.239 10.9173ZM9.33608 13.4932C10.5841 13.5132 11.5726 12.4948 11.6924 11.067C11.7922 9.819 10.9735 8.64085 9.83529 8.40123C8.71705 8.1616 7.64873 8.8006 7.2194 9.96877C6.62034 11.6162 7.71862 13.4633 9.33608 13.4932Z" fill="#FEFCFF"/>
</svg>
