<svg width="25" height="28" viewBox="0 0 25 28" fill="none" xmlns="http://www.w3.org/2000/svg">
<path d="M6.46288 9.01099C6.45022 5.64302 9.21852 2.89803 12.5834 2.9107C15.9755 2.92338 18.6929 5.65473 18.6865 9.0319C18.6802 12.3809 15.9312 15.107 12.5653 15.1007L12.5625 15.1007C9.18381 15.1197 6.47556 12.3534 6.46288 9.01099ZM6.46288 9.01099L6.0807 9.01243L6.46288 9.01099ZM4.63058 7.25868L4.63045 7.25925C3.90382 10.5093 5.23396 13.9958 8.31825 15.9948C6.32866 16.8102 4.65133 18.058 3.35065 19.7989C1.99418 21.6145 1.22697 23.6643 1.07381 25.9269H1.0738L1.07364 25.9296C1.05564 26.2266 1.1283 26.5113 1.30164 26.7308C1.47859 26.9548 1.74027 27.0835 2.03381 27.0889L2.03406 27.0889C2.32873 27.0942 2.58467 26.9843 2.7728 26.7792C2.95069 26.5852 3.04616 26.3309 3.09076 26.0718C3.1183 25.9128 3.14441 25.7553 3.17028 25.5993C3.28716 24.8942 3.39898 24.2196 3.6151 23.5765L3.61527 23.576C4.20916 21.8008 5.27968 20.3473 6.77246 19.192L6.77272 19.1918C8.24256 18.0522 9.91026 17.4055 11.7511 17.237L11.7527 17.2368C13.4385 17.0754 15.0729 17.3782 16.6156 18.1106C18.1608 18.8443 19.4337 19.8988 20.3965 21.3011L20.3969 21.3016C21.3899 22.7425 21.9641 24.3259 22.074 26.0776L22.0741 26.0796C22.1142 26.6711 22.5904 27.1147 23.1642 27.0816C23.4386 27.0658 23.6876 26.9462 23.8594 26.7351C24.0295 26.5262 24.1012 26.2562 24.0824 25.9744L24.0823 25.9736C24.0636 25.7026 24.0248 25.4227 23.9881 25.1583C23.9704 25.0308 23.9533 24.9069 23.9391 24.7892L23.9387 24.7864C23.8047 23.7428 23.481 22.7535 23.0279 21.8264C21.6882 19.0615 19.6122 17.0901 16.7704 15.9818C20.206 13.8458 21.3962 9.97024 20.3425 6.59582C19.2757 3.17666 16.0739 0.774046 12.2829 0.900935C8.67066 1.01423 5.46383 3.55845 4.63058 7.25868Z" fill="white" stroke="white" stroke-width="0.764359"/>
</svg>
